<?xml version="1.0" encoding="UTF-8" standalone="no"?>
<!-- Created with Inkscape (http://www.inkscape.org/) -->

<svg
   xmlns:dc="http://purl.org/dc/elements/1.1/"
   xmlns:cc="http://creativecommons.org/ns#"
   xmlns:rdf="http://www.w3.org/1999/02/22-rdf-syntax-ns#"
   xmlns:svg="http://www.w3.org/2000/svg"
   xmlns="http://www.w3.org/2000/svg"
   xmlns:sodipodi="http://sodipodi.sourceforge.net/DTD/sodipodi-0.dtd"
   xmlns:inkscape="http://www.inkscape.org/namespaces/inkscape"
   width="210mm"
   height="297mm"
   viewBox="0 0 744.09448819 1052.3622047"
   id="svg3931"
   version="1.1"
   inkscape:version="0.91 r13725"
   sodipodi:docname="Happy smile remix.svg">
  <defs
     id="defs3933">
    <inkscape:path-effect
       effect="skeletal"
       id="path-effect3859"
       is_visible="true"
       pattern="m -91.796542,38.046755 c 0,-2.76 2.24,-5 5,-5 2.76,0 5,2.24 5,5 0,2.76 -2.24,5.000001 -5,5.000001 -2.76,0 -5,-2.240001 -5,-5.000001 z"
       copytype="single_stretched"
       prop_scale="0.15"
       scale_y_rel="false"
       spacing="0"
       normal_offset="0"
       tang_offset="0"
       prop_units="false"
       vertical_pattern="false"
       fuse_tolerance="0" />
    <inkscape:path-effect
       fuse_tolerance="0"
       vertical_pattern="false"
       prop_units="false"
       tang_offset="0"
       normal_offset="0"
       spacing="0"
       scale_y_rel="false"
       prop_scale="0.15"
       copytype="single_stretched"
       pattern="m -71.796542,38.046755 c 0,-2.76 2.24,-5 5,-5 2.76,0 5,2.24 5,5 0,2.76 -2.24,5.000001 -5,5.000001 -2.76,0 -5,-2.240001 -5,-5.000001 z"
       is_visible="true"
       id="path-effect3863"
       effect="skeletal" />
  </defs>
  <sodipodi:namedview
     id="base"
     pagecolor="#ffffff"
     bordercolor="#666666"
     borderopacity="1.0"
     inkscape:pageopacity="0.0"
     inkscape:pageshadow="2"
     inkscape:zoom="0.35"
     inkscape:cx="-37.857143"
     inkscape:cy="520"
     inkscape:document-units="px"
     inkscape:current-layer="layer1"
     showgrid="false"
     inkscape:window-width="1366"
     inkscape:window-height="706"
     inkscape:window-x="-8"
     inkscape:window-y="-8"
     inkscape:window-maximized="1" />
  <metadata
     id="metadata3936">
    <rdf:RDF>
      <cc:Work
         rdf:about="">
        <dc:format>image/svg+xml</dc:format>
        <dc:type
           rdf:resource="http://purl.org/dc/dcmitype/StillImage" />
        <dc:title></dc:title>
      </cc:Work>
    </rdf:RDF>
  </metadata>
  <g
     inkscape:label="1. réteg"
     inkscape:groupmode="layer"
     id="layer1">
    <g
       transform="matrix(10.388385,0,0,10.388385,24.118382,-210.30057)"
       id="g3898">
      <ellipse
         transform="matrix(-0.99450343,-0.10470398,-0.10470398,0.99450343,0,0)"
         style="opacity:1;fill:#000000;fill-opacity:1;fill-rule:nonzero;stroke:none;stroke-width:1;stroke-linecap:round;stroke-linejoin:round;stroke-miterlimit:4;stroke-dasharray:none;stroke-opacity:1"
         id="ellipse3851"
         cx="-45.298386"
         cy="57.416256"
         rx="8.8897705"
         ry="18.649193" />
      <ellipse
         transform="matrix(-0.99450343,-0.10470398,-0.10470398,0.99450343,0,0)"
         ry="17.972797"
         rx="7.9234915"
         cy="58.092651"
         cx="-45.105133"
         id="ellipse3853"
         style="opacity:1;fill:#ffffff;fill-opacity:1;fill-rule:nonzero;stroke:none;stroke-width:1;stroke-linecap:round;stroke-linejoin:round;stroke-miterlimit:4;stroke-dasharray:none;stroke-opacity:1" />
      <ellipse
         style="opacity:1;fill:#000000;fill-opacity:1;fill-rule:nonzero;stroke:none;stroke-width:1;stroke-linecap:round;stroke-linejoin:round;stroke-miterlimit:4;stroke-dasharray:none;stroke-opacity:1"
         id="ellipse3855"
         cx="-48.518116"
         cy="69.466454"
         rx="2.9831567"
         ry="5.0396361"
         transform="matrix(-0.99591985,-0.09024219,-0.13827462,0.99039393,0,0)" />
      <ellipse
         ry="18.649193"
         rx="8.8897705"
         cy="61.65033"
         cx="27.055824"
         id="path3845"
         style="opacity:1;fill:#000000;fill-opacity:1;fill-rule:nonzero;stroke:none;stroke-width:1;stroke-linecap:round;stroke-linejoin:round;stroke-miterlimit:4;stroke-dasharray:none;stroke-opacity:1" />
      <ellipse
         style="opacity:1;fill:#ffffff;fill-opacity:1;fill-rule:nonzero;stroke:none;stroke-width:1;stroke-linecap:round;stroke-linejoin:round;stroke-miterlimit:4;stroke-dasharray:none;stroke-opacity:1"
         id="ellipse3847"
         cx="27.249077"
         cy="62.326725"
         rx="7.9234915"
         ry="17.972797" />
      <ellipse
         transform="matrix(0.99989443,0.01453061,0.0338164,0.99942806,0,0)"
         ry="5.0396361"
         rx="2.9831567"
         cy="72.652458"
         cx="23.735987"
         id="ellipse3849"
         style="opacity:1;fill:#000000;fill-opacity:1;fill-rule:nonzero;stroke:none;stroke-width:1;stroke-linecap:round;stroke-linejoin:round;stroke-miterlimit:4;stroke-dasharray:none;stroke-opacity:1" />
      <path
         sodipodi:nodetypes="cc"
         inkscape:connector-curvature="0"
         inkscape:original-d="m 31.307452,39.522528 c -7.05287,-7.711466 -15.65589,-2.024122 -15.46047,8.889771"
         inkscape:path-effect="#path-effect3859"
         id="path3857"
         d="m 31.307452,39.522528 c -0.533906,0.488308 -1.752165,-2.124674 -5.555519,-2.753389 -1.389314,-0.245622 -3.060612,-0.03121 -4.504768,0.854358 -0.170735,0.09972 -0.337255,0.206318 -0.499594,0.319729 -2.497057,1.744447 -3.560346,4.802388 -4.075428,6.891649 -0.53879,2.185426 -0.579417,3.573024 -0.825161,3.577424 -0.150432,0.0027 -0.537403,-1.385608 -0.243032,-3.772175 0.282069,-2.28684 1.304586,-5.710267 4.279591,-7.899164 0.190577,-0.140219 0.386455,-0.273152 0.587511,-0.398649 1.82231,-1.093157 3.870432,-1.270812 5.554702,-0.864423 4.405296,1.109845 5.133329,4.180338 5.281698,4.04464 z"
         style="fill:#000000;fill-rule:evenodd;stroke:none;stroke-width:1px;stroke-linecap:butt;stroke-linejoin:miter;stroke-opacity:1" />
      <path
         style="fill:#000000;fill-rule:evenodd;stroke:none;stroke-width:1px;stroke-linecap:butt;stroke-linejoin:miter;stroke-opacity:1"
         d="m 35.496376,39.522528 c 0.148369,0.135698 0.876402,-2.934795 5.281698,-4.04464 1.68427,-0.406389 3.732392,-0.228734 5.554702,0.864423 0.201056,0.125497 0.396934,0.25843 0.587511,0.398649 2.975005,2.188897 3.997522,5.612324 4.279591,7.899164 0.294371,2.386567 -0.0926,3.774869 -0.243032,3.772175 -0.245744,-0.0044 -0.286371,-1.391998 -0.825161,-3.577424 -0.515082,-2.089261 -1.578371,-5.147202 -4.075428,-6.891649 -0.162339,-0.113411 -0.328859,-0.220004 -0.499594,-0.319729 -1.444156,-0.885564 -3.115454,-1.09998 -4.504768,-0.854358 -3.803354,0.628715 -5.021613,3.241697 -5.555519,2.753389 z"
         id="path3861"
         inkscape:path-effect="#path-effect3863"
         inkscape:original-d="m 35.496376,39.522528 c 7.05287,-7.711466 15.65589,-2.024122 15.46047,8.889771"
         inkscape:connector-curvature="0"
         sodipodi:nodetypes="cc" />
      <path
         sodipodi:nodetypes="cccssc"
         inkscape:connector-curvature="0"
         id="path3870"
         d="m 15.460469,77.207424 c 9.627708,9.49738 20.225118,15.034574 34.979318,-0.193255 -0.73664,5.814495 -2.193815,10.804111 -0.466565,15.140274 -6.09869,8.304157 -26.61126,16.585167 -35.672285,-3.15841 -0.242415,-0.528212 0.08421,-0.861688 -0.218614,-1.406768 -0.576343,-1.037427 0.642826,-6.901057 1.378146,-10.381841 z"
         style="opacity:1;fill:#ffffff;fill-rule:evenodd;stroke:#000000;stroke-width:1.5;stroke-linecap:butt;stroke-linejoin:miter;stroke-opacity:1" />
      <path
         sodipodi:nodetypes="cc"
         inkscape:connector-curvature="0"
         id="path3872"
         d="m 14.140832,88.167829 c 10.09212,5.562022 21.276165,8.22491 34.946165,-0.524587"
         style="fill:none;fill-rule:evenodd;stroke:#000000;stroke-width:1.5;stroke-linecap:butt;stroke-linejoin:miter;stroke-opacity:1" />
    </g>
  </g>
</svg>
