<?xml version="1.0" encoding="iso-8859-1"?>
<!-- Generator: Adobe Illustrator 19.0.0, SVG Export Plug-In . SVG Version: 6.00 Build 0)  -->
<svg version="1.1" id="Layer_1" xmlns="http://www.w3.org/2000/svg" xmlns:xlink="http://www.w3.org/1999/xlink" x="0px" y="0px"
	 viewBox="0 0 511.996 511.996" style="enable-background:new 0 0 511.996 511.996;" xml:space="preserve">
<path style="opacity:0.52;fill:#EBF9FE;enable-background:new    ;" d="M464.444,253.701c3.798,18.392,5.804,36.924,5.404,55.355
	c-1.511,69.678-33.611,134.686-67.754,193.822H109.868c-90.414-156.602-90.414-241.668,0-398.27c0,0,292.226,0,292.226,0.001
	C427.94,149.372,453.555,200.961,464.444,253.701z"/>
<circle style="fill:#FFDFA1;" cx="257.492" cy="105.517" r="97.498"/>
<circle style="fill:#FFEFCA;" cx="257.492" cy="105.517" r="58.596"/>
<g>
	<path style="fill:#FBD696;stroke:#FBD696;stroke-width:15;stroke-linecap:round;stroke-linejoin:round;stroke-miterlimit:10;" d="
		M310.065,492.13H135.366c-10.401,0-18.911-8.51-18.911-18.911l0,0c0-10.401,8.51-18.911,18.911-18.911h174.699
		c10.401,0,18.911,8.51,18.911,18.911l0,0C328.975,483.62,320.465,492.13,310.065,492.13z"/>
	<path style="fill:#FBD696;stroke:#FBD696;stroke-width:15;stroke-linecap:round;stroke-linejoin:round;stroke-miterlimit:10;" d="
		M356.441,445.753H181.742c-10.401,0-18.911-8.51-18.911-18.911l0,0c0-10.401,8.51-18.911,18.911-18.911h174.699
		c10.401,0,18.911,8.51,18.911,18.911l0,0C375.353,437.243,366.843,445.753,356.441,445.753z"/>
	<path style="fill:#FBD696;stroke:#FBD696;stroke-width:15;stroke-linecap:round;stroke-linejoin:round;stroke-miterlimit:10;" d="
		M313.218,402.529H138.518c-10.401,0-18.911-8.51-18.911-18.911l0,0c0-10.401,8.51-18.911,18.911-18.911h174.699
		c10.401,0,18.911,8.51,18.911,18.911l0,0C332.128,394.019,323.618,402.529,313.218,402.529z"/>
	<path style="fill:#FBD696;stroke:#FBD696;stroke-width:15;stroke-linecap:round;stroke-linejoin:round;stroke-miterlimit:10;" d="
		M413.751,397.922l-156.537-77.563c-9.319-4.617-13.166-16.022-8.549-25.341l0,0c4.617-9.319,16.022-13.166,25.341-8.549
		l156.537,77.563c9.319,4.618,13.166,16.022,8.549,25.341l0,0C434.475,398.693,423.072,402.539,413.751,397.922z"/>
</g>
<path style="opacity:0.52;fill:#D3E8F1;enable-background:new    ;" d="M402.095,104.609c37.622,97.412,66.88,246.63-37.264,398.269
	h37.263C402.094,502.878,550.88,312.66,402.095,104.609z"/>
<path d="M109.87,511.996h292.226c3.258,0,6.267-1.738,7.896-4.559c61.446-106.427,79.318-178.093,63.747-255.605
	c-0.991-4.937-5.784-8.135-10.736-7.143c-4.937,0.992-8.134,5.798-7.143,10.735c7.728,38.469,6.501,75.668-5.1,117.311
	c-1.735-6.283-6.007-11.838-12.293-14.953L274.183,276.38c-3.243-1.607-6.867-2.457-10.482-2.457
	c-8.966,0-17.321,5.17-21.284,13.172l-3.838,7.746c-2.806,5.659-3.233,12.086-1.205,18.098c2.028,6.01,6.261,10.865,11.921,13.669
	l58.49,28.982h-173.59c-13.071,0-23.706,10.635-23.706,23.706v8.645c0,13.071,10.635,23.706,23.706,23.706h22.183
	c-1.692,3.26-2.665,6.952-2.665,10.873v8.645c0,5.251,1.737,10.093,4.638,14.025h-27.309c-13.071,0-23.706,10.635-23.706,23.706
	v8.645c0,0.855,0.051,1.697,0.14,2.529c-39.32-71.518-56.3-125.056-56.3-176.326c0-54.491,19.171-111.538,63.971-190.018h33.687
	c2.848,47.628,37.502,89.298,86.445,98.919c6.961,1.369,13.899,2.028,20.741,2.028c50.231,0,95.226-35.527,105.274-86.635
	c0.937-4.764,1.532-9.543,1.826-14.312h33.698c15.665,27.433,27.899,51.641,37.337,73.869c1.968,4.635,7.318,6.797,11.956,4.829
	c4.635-1.968,6.797-7.321,4.829-11.955c-10.251-24.141-23.644-50.446-40.948-80.418c-1.629-2.82-4.638-4.559-7.896-4.559h-39.413
	c-1.296-11.73-4.533-23.224-9.707-34.122c-2.16-4.549-7.603-6.486-12.147-4.325c-4.549,2.159-6.486,7.598-4.327,12.147
	c3.997,8.417,6.602,17.265,7.812,26.301h-21.155c-1.546-9.254-5.021-18.331-10.581-26.614c-7.599-11.319-18.272-20.003-30.863-25.11
	c-4.669-1.892-9.983,0.356-11.877,5.022c-1.893,4.666,0.356,9.983,5.022,11.877c9.206,3.735,17.014,10.089,22.578,18.376
	c3.461,5.156,5.818,10.731,7.145,16.449h-96.967c2.762-11.854,9.828-22.733,20.706-30.037c3.383-2.272,7.021-4.121,10.811-5.496
	c4.734-1.718,7.177-6.948,5.46-11.68c-1.718-4.733-6.943-7.177-11.68-5.461c-5.179,1.879-10.144,4.403-14.755,7.498
	c-16.12,10.823-26.108,27.392-29.115,45.176h-21.346c0.241-1.781,0.518-3.562,0.868-5.342
	c9.475-48.202,56.403-79.705,104.603-70.233c11.085,2.18,21.479,6.346,30.893,12.383c4.239,2.717,9.877,1.486,12.597-2.754
	c2.718-4.239,1.486-9.879-2.754-12.597c-11.353-7.28-23.876-12.302-37.219-14.925c-58.066-11.415-114.598,26.54-126.013,84.608
	c-0.582,2.959-1.028,5.913-1.358,8.859H109.87c-3.258,0-6.267,1.738-7.896,4.559c-48.388,83.809-69.032,144.728-69.032,203.694
	s20.644,119.885,69.032,203.694C103.601,510.259,106.612,511.996,109.87,511.996z M254.652,307.11
	c-0.47-1.394-0.377-2.876,0.266-4.171l3.838-7.748c0.913-1.842,2.853-3.033,4.944-3.033c0.833,0,1.635,0.188,2.385,0.56
	l164.283,81.401c2.658,1.317,3.789,4.674,2.473,7.331l-3.837,7.746c-0.914,1.843-2.856,3.033-4.945,3.033
	c-0.834,0-1.636-0.188-2.386-0.56l-164.282-81.401C256.096,309.628,255.124,308.506,254.652,307.11z M413.576,408.01
	c3.243,1.607,6.867,2.457,10.483,2.457c6.165,0,12.041-2.446,16.401-6.576c-10.338,27.28-24.755,56.777-43.644,89.871h-65.186
	c3.996-4.245,6.465-9.943,6.465-16.22v-8.645c0-5.251-1.737-10.093-4.638-14.025h27.309c13.071,0,23.706-10.635,23.706-23.706
	v-8.645c0-13.071-10.635-23.706-23.706-23.706h-22.183c1.692-3.26,2.665-6.953,2.665-10.873v-8.645c0-2.733-0.487-5.347-1.342-7.791
	L413.576,408.01z M177.42,436.637c-2.965,0-5.471-2.506-5.471-5.471v-8.645c0-2.965,2.506-5.471,5.471-5.471h183.343
	c2.965,0,5.471,2.506,5.471,5.471v8.645c0,2.965-2.506,5.471-5.471,5.471H177.42z M128.725,387.941v-8.645
	c0-2.965,2.506-5.471,5.471-5.471h183.343c2.965,0,5.471,2.506,5.471,5.471v8.645c0,2.965-2.506,5.471-5.471,5.471H134.195
	C131.23,393.412,128.725,390.906,128.725,387.941z M125.574,468.897c0-2.965,2.506-5.471,5.471-5.471h183.343
	c2.965,0,5.471,2.506,5.471,5.471v8.645c0,2.965-2.506,5.471-5.471,5.471H131.044c-2.965,0-5.471-2.506-5.471-5.471V468.897z
	 M343.399,124.52c-8.34,42.427-45.686,71.919-87.387,71.915c-5.676,0-11.441-0.548-17.217-1.683
	c-23.35-4.59-43.516-17.999-56.78-37.757c-8.794-13.097-13.832-27.947-14.909-43.271h21.309c1.082,10.764,4.74,21.418,11.179,31.009
	c13.116,19.535,34.664,30.093,56.594,30.093c13.038,0,26.213-3.733,37.826-11.531c17.441-11.711,27.721-30.145,29.725-49.571h21.115
	C344.588,117.324,344.106,120.926,343.399,124.52z M206.77,113.726h98.612c-1.906,13.532-9.319,26.233-21.531,34.432
	c-22.804,15.309-53.809,9.212-69.117-13.588C210.39,128.1,207.774,120.97,206.77,113.726z"/>
<g>
</g>
<g>
</g>
<g>
</g>
<g>
</g>
<g>
</g>
<g>
</g>
<g>
</g>
<g>
</g>
<g>
</g>
<g>
</g>
<g>
</g>
<g>
</g>
<g>
</g>
<g>
</g>
<g>
</g>
</svg>
